<svg id="Layer_1" data-name="Layer 1" xmlns="http://www.w3.org/2000/svg" xmlns:xlink="http://www.w3.org/1999/xlink" viewBox="0 0 384 121.19"><defs><style>.cls-1{fill:url(#radial-gradient);}.cls-2{fill:url(#radial-gradient-2);}.cls-3{fill:url(#radial-gradient-3);}.cls-4{fill:url(#radial-gradient-4);}.cls-5{fill:url(#radial-gradient-5);}.cls-6{fill:url(#radial-gradient-6);}.cls-7{fill:url(#radial-gradient-7);}.cls-8{fill:url(#radial-gradient-9);}.cls-9{fill:url(#radial-gradient-10);}.cls-10{fill:url(#radial-gradient-11);}.cls-11{fill:url(#radial-gradient-12);}.cls-12{fill:url(#radial-gradient-13);}.cls-13{fill:url(#radial-gradient-14);}.cls-14{fill:url(#radial-gradient-15);}.cls-15{fill:url(#radial-gradient-16);}.cls-16{fill:url(#radial-gradient-17);}.cls-17{fill:url(#radial-gradient-18);}.cls-18{fill:url(#radial-gradient-19);}.cls-19{fill:url(#radial-gradient-20);}.cls-20{fill:url(#radial-gradient-21);}.cls-21{fill:url(#radial-gradient-22);}.cls-22{fill:url(#radial-gradient-23);}.cls-23{fill:url(#radial-gradient-24);}.cls-24{fill:url(#radial-gradient-25);}.cls-25{fill:url(#radial-gradient-26);}.cls-26{fill:url(#radial-gradient-27);}.cls-27{fill:url(#radial-gradient-28);}.cls-28{fill:url(#radial-gradient-29);}.cls-29{fill:url(#radial-gradient-30);}.cls-30{fill:url(#radial-gradient-31);}.cls-31{fill:url(#radial-gradient-32);}.cls-32{fill:url(#radial-gradient-33);}.cls-33{fill:url(#radial-gradient-35);}.cls-34{fill:url(#radial-gradient-36);}.cls-35{fill:url(#radial-gradient-38);}.cls-36{fill:url(#radial-gradient-39);}.cls-37{fill:url(#radial-gradient-40);}.cls-38{fill:url(#radial-gradient-41);}.cls-39{fill:url(#radial-gradient-42);}.cls-40{fill:url(#radial-gradient-43);}.cls-41{fill:url(#radial-gradient-44);}.cls-42{fill:url(#radial-gradient-45);}.cls-43{fill:url(#radial-gradient-46);}.cls-44{fill:url(#radial-gradient-47);}</style><radialGradient id="radial-gradient" cx="290.2" cy="51.8" r="161.28" gradientUnits="userSpaceOnUse"><stop offset="0" stop-color="#0783e7"/><stop offset="0.03" stop-color="#067ad9"/><stop offset="0.19" stop-color="#03519e"/><stop offset="0.31" stop-color="#023878"/><stop offset="0.37" stop-color="#012e6a"/><stop offset="0.49" stop-color="#012257"/><stop offset="0.65" stop-color="#021745"/><stop offset="0.81" stop-color="#02103a"/><stop offset="1" stop-color="#020e37"/></radialGradient><radialGradient id="radial-gradient-2" cx="290.2" cy="51.8" r="161.28" xlink:href="#radial-gradient"/><radialGradient id="radial-gradient-3" cx="290.2" cy="51.8" r="161.28" xlink:href="#radial-gradient"/><radialGradient id="radial-gradient-4" cx="290.2" cy="51.8" r="161.28" xlink:href="#radial-gradient"/><radialGradient id="radial-gradient-5" cx="178.41" cy="48.78" r="223.17" xlink:href="#radial-gradient"/><radialGradient id="radial-gradient-6" cx="178.41" cy="48.78" r="223.17" xlink:href="#radial-gradient"/><radialGradient id="radial-gradient-7" cx="178.41" cy="48.78" r="223.17" xlink:href="#radial-gradient"/><radialGradient id="radial-gradient-9" cx="178.41" cy="48.78" r="223.17" xlink:href="#radial-gradient"/><radialGradient id="radial-gradient-10" cx="178.41" cy="48.78" r="223.17" xlink:href="#radial-gradient"/><radialGradient id="radial-gradient-11" cx="178.41" cy="48.78" r="223.17" xlink:href="#radial-gradient"/><radialGradient id="radial-gradient-12" cx="178.41" cy="48.78" r="223.17" xlink:href="#radial-gradient"/><radialGradient id="radial-gradient-13" cx="178.41" cy="48.78" r="223.17" xlink:href="#radial-gradient"/><radialGradient id="radial-gradient-14" cx="178.41" cy="48.78" r="223.17" xlink:href="#radial-gradient"/><radialGradient id="radial-gradient-15" cx="178.41" cy="48.78" r="223.17" xlink:href="#radial-gradient"/><radialGradient id="radial-gradient-16" cx="178.41" cy="48.78" r="223.17" xlink:href="#radial-gradient"/><radialGradient id="radial-gradient-17" cx="178.41" cy="48.78" r="223.17" xlink:href="#radial-gradient"/><radialGradient id="radial-gradient-18" cx="178.41" cy="48.78" r="223.17" xlink:href="#radial-gradient"/><radialGradient id="radial-gradient-19" cx="178.41" cy="48.78" r="223.17" xlink:href="#radial-gradient"/><radialGradient id="radial-gradient-20" cx="178.41" cy="48.78" r="223.17" xlink:href="#radial-gradient"/><radialGradient id="radial-gradient-21" cx="178.41" cy="48.78" r="223.17" xlink:href="#radial-gradient"/><radialGradient id="radial-gradient-22" cx="178.41" cy="48.78" r="223.17" xlink:href="#radial-gradient"/><radialGradient id="radial-gradient-23" cx="178.41" cy="48.78" r="223.17" xlink:href="#radial-gradient"/><radialGradient id="radial-gradient-24" cx="178.41" cy="48.78" r="223.17" xlink:href="#radial-gradient"/><radialGradient id="radial-gradient-25" cx="178.41" cy="48.78" r="223.17" xlink:href="#radial-gradient"/><radialGradient id="radial-gradient-26" cx="178.41" cy="48.78" r="223.17" xlink:href="#radial-gradient"/><radialGradient id="radial-gradient-27" cx="178.41" cy="48.78" r="223.17" xlink:href="#radial-gradient"/><radialGradient id="radial-gradient-28" cx="353.53" cy="67.93" r="32.18" gradientUnits="userSpaceOnUse"><stop offset="0" stop-color="#87d6f8"/><stop offset="0.05" stop-color="#6fccf4"/><stop offset="0.21" stop-color="#34b2e9"/><stop offset="0.32" stop-color="#0ea1e2"/><stop offset="0.37" stop-color="#009bdf"/><stop offset="0.38" stop-color="#009ade"/><stop offset="0.57" stop-color="#0088ce"/><stop offset="0.77" stop-color="#007dc5"/><stop offset="1" stop-color="#007ac2"/></radialGradient><radialGradient id="radial-gradient-29" cx="353.53" cy="67.93" r="32.18" xlink:href="#radial-gradient-28"/><radialGradient id="radial-gradient-30" cx="353.53" cy="67.93" r="32.18" xlink:href="#radial-gradient-28"/><radialGradient id="radial-gradient-31" cx="353.53" cy="67.93" r="32.18" xlink:href="#radial-gradient-28"/><radialGradient id="radial-gradient-32" cx="353.53" cy="67.93" r="32.18" xlink:href="#radial-gradient-28"/><radialGradient id="radial-gradient-33" cx="353.53" cy="67.93" r="32.18" xlink:href="#radial-gradient-28"/><radialGradient id="radial-gradient-35" cx="353.53" cy="67.93" r="32.18" xlink:href="#radial-gradient-28"/><radialGradient id="radial-gradient-36" cx="353.53" cy="67.93" r="32.18" xlink:href="#radial-gradient-28"/><radialGradient id="radial-gradient-38" cx="353.53" cy="67.93" r="32.18" xlink:href="#radial-gradient-28"/><radialGradient id="radial-gradient-39" cx="353.53" cy="67.93" r="32.18" xlink:href="#radial-gradient-28"/><radialGradient id="radial-gradient-40" cx="353.53" cy="67.93" r="32.18" xlink:href="#radial-gradient-28"/><radialGradient id="radial-gradient-41" cx="191.5" cy="79.28" r="192.61" xlink:href="#radial-gradient-28"/><radialGradient id="radial-gradient-42" cx="191.5" cy="79.28" r="192.61" xlink:href="#radial-gradient-28"/><radialGradient id="radial-gradient-43" cx="191.5" cy="79.28" r="192.61" xlink:href="#radial-gradient-28"/><radialGradient id="radial-gradient-44" cx="191.5" cy="79.28" r="192.61" xlink:href="#radial-gradient-28"/><radialGradient id="radial-gradient-45" cx="191.5" cy="79.28" r="192.61" xlink:href="#radial-gradient-28"/><radialGradient id="radial-gradient-46" cx="191.5" cy="79.28" r="192.61" xlink:href="#radial-gradient-28"/><radialGradient id="radial-gradient-47" cx="191.5" cy="79.28" r="192.61" xlink:href="#radial-gradient-28"/></defs><path class="cls-1" d="M267.51,101.86c3.34,0,4.89,1.82,4.89,4.5v1.93c0,3-1.66,4.72-4.84,4.72H257.07c-1,0-1.43.53-1.43,1.58v2.34c0,.39.16.58.55.58h15.54c.42,0,.64.2.64.61v2.46c0,.41-.22.61-.64.61H254.12c-1.85,0-2.57-.75-2.57-2.35v-4.25c0-3,1.66-4.75,4.83-4.75h10.49c1,0,1.44-.53,1.44-1.55v-1.18c0-1-.41-1.58-1.46-1.58h-14c-.42,0-.61-.19-.61-.6v-2.46c0-.42.19-.61.61-.61Z"/><path class="cls-2" d="M301.17,101.86c5.58,0,7.73,2,7.73,7.29v4.75c0,5.3-2.15,7.29-7.73,7.29H294.8c-5.58,0-7.73-2-7.73-7.29v-4.75c0-5.3,2.15-7.29,7.73-7.29Zm-10,11.87c0,2.93.8,3.78,3.65,3.78h6.37c2.85,0,3.65-.85,3.65-3.78v-4.42c0-2.92-.8-3.78-3.65-3.78H294.8c-2.85,0-3.65.86-3.65,3.78Z"/><path class="cls-3" d="M339.59,101.86c3.34,0,4.89,1.82,4.89,4.5v1.93c0,3-1.66,4.72-4.84,4.72H329.15c-1,0-1.43.53-1.43,1.58v2.34c0,.39.16.58.55.58h15.54c.42,0,.64.2.64.61v2.46c0,.41-.22.61-.64.61H326.2c-1.85,0-2.57-.75-2.57-2.35v-4.25c0-3,1.66-4.75,4.83-4.75H339c1,0,1.44-.53,1.44-1.55v-1.18c0-1-.41-1.58-1.46-1.58H325c-.42,0-.61-.19-.61-.6v-2.46c0-.42.19-.61.61-.61Z"/><path class="cls-4" d="M372.12,102.69a4.2,4.2,0,0,1,2.76-.83h1.63c1.61,0,2.4.58,2.4,2.82v9.08h2.27a.55.55,0,0,1,.61.63v2.24a.53.53,0,0,1-.61.61h-2.27v3.34c0,.41-.19.61-.6.61h-2.85a.55.55,0,0,1-.63-.61v-3.34H360.31a1.58,1.58,0,0,1-1.77-1.69v-2.09a2.32,2.32,0,0,1,1.08-2.24Zm-8.8,11.07h11.51v-7.92c0-.22-.08-.31-.22-.31h-.17a1,1,0,0,0-.6.22L363.26,113a.45.45,0,0,0-.16.39v.17C363.1,113.68,363.18,113.76,363.32,113.76Z"/><path class="cls-5" d="M17.31,0c3.81,0,5.25,1.49,5.25,4.56V5.88a4,4,0,0,1-1.77,3.51A3.76,3.76,0,0,1,22.7,13v1.6c0,2.93-1.22,4.78-4.89,4.78H1.41a.74.74,0,0,1-.83-.83V.83A.74.74,0,0,1,1.41,0ZM4.81,8H16.13C18,8,18.5,7.48,18.5,6.4V5.47c0-1.14-.61-1.66-2-1.66H5.17c-.25,0-.36.11-.36.36Zm0,3v4.12c0,.25.11.36.36.36H16.48c1.47,0,2.05-.53,2.05-1.69V12.78c0-1.13-.58-1.74-2.4-1.74Z"/><path class="cls-6" d="M37.31,0c1.41,0,2.26.44,3.17,2.1l9.14,16.59c.2.36.11.64-.33.64H45.78a.58.58,0,0,1-.63-.36l-2-3.56h-13L28.31,19a.6.6,0,0,1-.64.36H24.08c-.46,0-.55-.28-.35-.64L32.78,2.1C33.69.44,34.52,0,35.68,0ZM32,12.2h9.5L37.06,4.11a.33.33,0,0,0-.3-.19h-.17a.32.32,0,0,0-.3.19Z"/><path class="cls-7" d="M56.89,0c1.77,0,2.16.22,3.2,1.63L70.37,15.1a.36.36,0,0,0,.35.19H71c.14,0,.22-.08.22-.27V.61A.53.53,0,0,1,71.8,0h2.9a.53.53,0,0,1,.61.61V16.45c0,2.24-.8,2.88-2.49,2.88H70.45c-1.69,0-2.1-.17-3.2-1.63L57,4.22A.42.42,0,0,0,56.59,4h-.25c-.17,0-.22.08-.22.28V18.72a.53.53,0,0,1-.61.61h-2.9a.55.55,0,0,1-.63-.61V2.87C52,.63,52.78,0,54.46,0Z"/><path class="cls-6" d="M100.49,0c.42,0,.61.19.61.61v2.7c0,.42-.19.64-.61.64H86.66C83.82,4,83,4.78,83,7.7v4c0,2.92.83,3.78,3.67,3.78h9.11c1,0,1.38-.44,1.38-1.68V11.54c0-.25-.08-.36-.33-.36H88.73a.56.56,0,0,1-.6-.63V8.48a.56.56,0,0,1,.6-.64h11.52a.73.73,0,0,1,.82.83V15.1c0,3.09-1.21,4.23-3.42,4.23H86.5c-5.58,0-7.73-2-7.73-7.29V7.29C78.77,2,80.92,0,86.5,0Z"/><path class="cls-8" d="M108.12,0c.42,0,.61.19.61.61v11c0,2.93.83,3.79,3.67,3.79h11.18c.42,0,.61.19.61.6v2.71a.53.53,0,0,1-.61.61H112.24c-5.58,0-7.73-2-7.73-7.29V.61c0-.42.22-.61.63-.61Z"/><path class="cls-9" d="M138.94,0c1.41,0,2.27.44,3.18,2.1l9.13,16.59c.2.36.11.64-.33.64h-3.5a.59.59,0,0,1-.64-.36l-2-3.56h-13L129.94,19a.6.6,0,0,1-.63.36h-3.59c-.47,0-.55-.28-.36-.64l9-16.59c.91-1.66,1.74-2.1,2.9-2.1Zm-5.35,12.2h9.49l-4.39-8.09a.32.32,0,0,0-.3-.19h-.17a.32.32,0,0,0-.3.19Z"/><path class="cls-10" d="M167.36,0c6,0,8.45,2.4,8.45,7.79v3.75c0,5.38-2.46,7.79-8.45,7.79H154.44a.74.74,0,0,1-.83-.83V.83a.74.74,0,0,1,.83-.83Zm-9.53,15.13c0,.25.11.36.36.36h9.06c3.25,0,4.33-1.05,4.33-4.31v-3c0-3.25-1.08-4.3-4.33-4.3h-9.06c-.25,0-.36.11-.36.38Z"/><path class="cls-11" d="M198.92,0c.42,0,.64.19.64.61V3.23c0,.41-.22.61-.64.61H186.86c-2.87,0-3.67.85-3.67,3.75v.28h15.59c.42,0,.61.19.61.61v2.18c0,.41-.19.6-.61.6H183.19v.47c0,2.9.8,3.76,3.67,3.76h12.06c.42,0,.64.19.64.61v2.62c0,.41-.22.61-.64.61H186.77c-5.57,0-7.72-2-7.72-7.29V7.29C179.05,2,181.2,0,186.77,0Z"/><path class="cls-12" d="M221.93,0c.41,0,.6.19.6.61V3.23c0,.41-.19.61-.6.61H208.1c-1,0-1.47.58-1.47,1.54v.94c0,1,.47,1.55,1.44,1.55h10.35c3.18,0,4.83,1.71,4.83,4.75v2.21c0,2.67-1.55,4.5-4.89,4.5H203.07a.55.55,0,0,1-.63-.61V16.1c0-.42.22-.61.63-.61h14.49c1.05,0,1.47-.58,1.47-1.55V12.81c0-1-.47-1.55-1.44-1.55H207.24c-3.18,0-4.83-1.71-4.83-4.75v-2c0-2.68,1.54-4.5,4.88-4.5Z"/><path class="cls-13" d="M230,0c.42,0,.61.19.61.61V7.79h12.92V.61a.53.53,0,0,1,.61-.61h3c.42,0,.64.19.64.61V18.72c0,.41-.22.61-.64.61h-3a.54.54,0,0,1-.61-.61V11.37H230.63v7.35a.53.53,0,0,1-.61.61h-3a.55.55,0,0,1-.63-.61V.61c0-.42.22-.61.63-.61Z"/><path class="cls-14" d="M55.34,28a.52.52,0,0,1,.6.6V46.72c0,.42-.19.61-.6.61h-3c-.41,0-.63-.19-.63-.61V28.61c0-.41.22-.6.63-.6Z"/><path class="cls-15" d="M64.53,28c1.77,0,2.15.22,3.2,1.63L78,43.11a.4.4,0,0,0,.36.19h.25c.14,0,.22-.08.22-.28V28.61c0-.41.2-.6.61-.6h2.9c.41,0,.61.19.61.6V44.46c0,2.24-.8,2.87-2.49,2.87H78.09c-1.69,0-2.1-.16-3.21-1.63L64.59,32.23a.4.4,0,0,0-.36-.19H64c-.17,0-.22.08-.22.27V46.72c0,.42-.19.61-.61.61h-2.9c-.41,0-.63-.19-.63-.61V30.88c0-2.24.8-2.87,2.48-2.87Z"/><path class="cls-16" d="M107.64,28c.41,0,.63.19.63.6v2.71a.57.57,0,0,1-.63.63H99V46.72c0,.42-.19.61-.61.61h-3a.53.53,0,0,1-.61-.61V32H86.08a.57.57,0,0,1-.64-.63V28.61c0-.41.22-.6.64-.6Z"/><path class="cls-17" d="M129.84,28c.42,0,.64.19.64.6v2.63c0,.41-.22.6-.64.6H117.78c-2.87,0-3.67.86-3.67,3.76v.27H129.7a.53.53,0,0,1,.61.61v2.18c0,.42-.19.61-.61.61H114.11v.47c0,2.9.8,3.75,3.67,3.75h12.06c.42,0,.64.2.64.61v2.62c0,.42-.22.61-.64.61H117.69c-5.57,0-7.73-2-7.73-7.29V35.29c0-5.3,2.16-7.28,7.73-7.28Z"/><path class="cls-18" d="M149.31,28c4.23,0,5.94,2,5.94,5.68v1.58c0,3.14-1.22,5-4.11,5.52l4.72,5.85a.43.43,0,0,1-.36.69h-3.56c-.47,0-.61-.11-.78-.36l-4.36-5.74h-8.92v5.49c0,.42-.19.61-.6.61h-3c-.42,0-.64-.19-.64-.61V28.83a.73.73,0,0,1,.83-.82Zm-11.43,9.85h10.58c1.87,0,2.57-.8,2.57-2.45V34.25c0-1.66-.7-2.46-2.57-2.46H138.24c-.25,0-.36.11-.36.33Z"/><path class="cls-19" d="M163.57,28c1.76,0,2.15.22,3.2,1.63L177,43.11a.38.38,0,0,0,.36.19h.25c.14,0,.22-.08.22-.28V28.61c0-.41.19-.6.61-.6h2.89c.42,0,.61.19.61.6V44.46c0,2.24-.8,2.87-2.48,2.87h-2.38c-1.68,0-2.1-.16-3.2-1.63l-10.3-13.47a.39.39,0,0,0-.36-.19H163c-.16,0-.21.08-.21.27V46.72a.53.53,0,0,1-.61.61h-2.9c-.42,0-.64-.19-.64-.61V30.88c0-2.24.8-2.87,2.49-2.87Z"/><path class="cls-20" d="M197.92,28c1.41,0,2.26.44,3.17,2.09l9.14,16.6c.2.36.11.63-.33.63h-3.51a.57.57,0,0,1-.63-.36l-2-3.56h-13L188.92,47a.58.58,0,0,1-.63.36H184.7c-.47,0-.56-.27-.36-.63l9-16.6c.91-1.65,1.74-2.09,2.9-2.09Zm-5.36,12.2h9.5l-4.39-8.09a.31.31,0,0,0-.3-.19h-.17a.31.31,0,0,0-.3.19Z"/><path class="cls-21" d="M230,28c.41,0,.63.19.63.6v2.71A.57.57,0,0,1,230,32h-8.67V46.72c0,.42-.19.61-.61.61h-3c-.41,0-.6-.19-.6-.61V32h-8.67a.57.57,0,0,1-.64-.63V28.61c0-.41.22-.6.64-.6Z"/><path class="cls-22" d="M236.73,28a.52.52,0,0,1,.6.6V46.72c0,.42-.19.61-.6.61h-3c-.41,0-.63-.19-.63-.61V28.61c0-.41.22-.6.63-.6Z"/><path class="cls-23" d="M257.05,28c5.6,0,7.73,2,7.73,7.28V40c0,5.3-2.13,7.29-7.73,7.29h-8.53c-5.58,0-7.73-2-7.73-7.29V35.29c0-5.3,2.15-7.28,7.73-7.28ZM245,39.74c0,2.9.83,3.75,3.67,3.75h8.2c2.84,0,3.67-.85,3.67-3.75V35.6c0-2.9-.83-3.76-3.67-3.76h-8.2c-2.84,0-3.67.86-3.67,3.76Z"/><path class="cls-24" d="M273.12,28c1.77,0,2.16.22,3.21,1.63L286.6,43.11a.38.38,0,0,0,.36.19h.24c.14,0,.22-.08.22-.28V28.61c0-.41.2-.6.61-.6h2.9c.41,0,.61.19.61.6V44.46c0,2.24-.8,2.87-2.49,2.87h-2.37c-1.68,0-2.1-.16-3.2-1.63l-10.3-13.47a.39.39,0,0,0-.36-.19h-.25c-.16,0-.22.08-.22.27V46.72c0,.42-.19.61-.61.61h-2.9c-.41,0-.63-.19-.63-.61V30.88c0-2.24.8-2.87,2.48-2.87Z"/><path class="cls-25" d="M307.48,28c1.4,0,2.26.44,3.17,2.09l9.14,16.6c.19.36.11.63-.33.63H316a.56.56,0,0,1-.63-.36l-2-3.56h-13L298.48,47a.6.6,0,0,1-.64.36h-3.59c-.47,0-.55-.27-.36-.63L303,30.1c.91-1.65,1.74-2.09,2.9-2.09Zm-5.36,12.2h9.5l-4.39-8.09a.32.32,0,0,0-.3-.19h-.17a.31.31,0,0,0-.3.19Z"/><path class="cls-26" d="M324.6,28c.42,0,.61.19.61.6v11c0,2.92.83,3.78,3.67,3.78h11.18c.42,0,.61.19.61.61v2.7c0,.42-.19.61-.61.61H328.72c-5.58,0-7.73-2-7.73-7.29V28.61c0-.41.22-.6.63-.6Z"/><path class="cls-27" d="M357.52,56.09a56,56,0,0,1,11.78-2.27A23.85,23.85,0,0,0,360.06,52a24.13,24.13,0,0,0-4.36.4c.19,1,.39,2,.63,3.05A1.49,1.49,0,0,1,357.52,56.09Z"/><path class="cls-28" d="M344.36,62.39a2.91,2.91,0,0,1,2.34-4.07c0-.79.1-1.59.17-2.38A24,24,0,0,0,337.4,68.2,45.47,45.47,0,0,1,344.36,62.39Z"/><path class="cls-29" d="M344.63,82.65a1.46,1.46,0,0,1-.57-1.16s0-.09,0-.14c-2.69-1.16-5.32-2.45-7.89-3.85a23.81,23.81,0,0,0,5.17,13.33c.26-.9.55-1.82.9-2.77A44.84,44.84,0,0,1,344.63,82.65Z"/><path class="cls-30" d="M345.54,80a1.44,1.44,0,0,1,.5.1c.32-.54.65-1.07,1-1.6a2,2,0,0,1,.4-3.17,86.58,86.58,0,0,1-.86-11.27,2.94,2.94,0,0,1-1.72-.94,44.68,44.68,0,0,0-8,7,23.73,23.73,0,0,0-.72,5.82c0,.19,0,.37,0,.55a89.35,89.35,0,0,0,8.27,4.08A1.47,1.47,0,0,1,345.54,80Z"/><path class="cls-31" d="M357.06,58.21c.3,1.07.63,2.13,1,3.19a4.63,4.63,0,0,1,1.5-.25,4.7,4.7,0,0,1,3.56,1.64,50.18,50.18,0,0,1,12-5.46,23.8,23.8,0,0,0-4.23-2.75,55.33,55.33,0,0,0-13.14,2.36A1.53,1.53,0,0,1,357.06,58.21Z"/><path class="cls-32" d="M377.81,89.53c.41.32.82.64,1.24,1,.37-.48.72-1,1.05-1.48-.68,0-1.36,0-2,0A2.27,2.27,0,0,1,377.81,89.53Z"/><path class="cls-30" d="M364.24,65.83A4.68,4.68,0,0,1,361.77,70a62.47,62.47,0,0,0,12.84,16.82,2.12,2.12,0,0,1,3.53,1.32c.83,0,1.67,0,2.5,0A23.92,23.92,0,0,0,376,58a49,49,0,0,0-12.34,5.49A4.67,4.67,0,0,1,364.24,65.83Z"/><path class="cls-33" d="M349.32,59.44A48.9,48.9,0,0,1,354.76,57s0-.07,0-.1a1.5,1.5,0,0,1,.73-1.29c-.25-1-.46-2-.65-3.09a23.51,23.51,0,0,0-7,2.8c-.1,1-.17,2-.23,3A2.9,2.9,0,0,1,349.32,59.44Z"/><path class="cls-34" d="M347.8,79c-.36.56-.71,1.12-1.05,1.69a1.48,1.48,0,0,1,.27.85s0,.08,0,.11l.5.2a2.63,2.63,0,0,1,.88-1c-.13-.59-.24-1.18-.35-1.77A2.1,2.1,0,0,1,347.8,79Z"/><path class="cls-28" d="M361,70.3a4.92,4.92,0,0,1-1.39.21,4.65,4.65,0,0,1-3.34-1.41A50.91,50.91,0,0,0,350,75.89a2,2,0,0,1,.39,1.18A2,2,0,0,1,348.93,79c.09.49.19,1,.29,1.46a2.6,2.6,0,0,1,.64-.09A2.64,2.64,0,0,1,352.49,83a2.78,2.78,0,0,1-.06.58A93.53,93.53,0,0,0,374,87.85a2.29,2.29,0,0,1,.12-.37A63.54,63.54,0,0,1,361,70.3Z"/><path class="cls-35" d="M348.38,75.09a2,2,0,0,1,.91.23,51.35,51.35,0,0,1,6.37-6.9,4.68,4.68,0,0,1,1.59-6.66q-.57-1.65-1.05-3.33a1.47,1.47,0,0,1-1.11-.57,49,49,0,0,0-5.34,2.36,2.88,2.88,0,0,1-2.3,3.85,84.78,84.78,0,0,0,.84,11Z"/><path class="cls-36" d="M376,90.49a2.14,2.14,0,0,1-2.1-1.76,94.29,94.29,0,0,1-21.85-4.36,2.56,2.56,0,0,1-1.64,1.17,86.32,86.32,0,0,0,5.08,13.87,24.27,24.27,0,0,0,4.54.44,23.91,23.91,0,0,0,18.44-8.67c-.45-.34-.89-.68-1.32-1A2.15,2.15,0,0,1,376,90.49Z"/><path class="cls-37" d="M347.22,83c0-.11,0-.21,0-.32l-.57-.22a1.48,1.48,0,0,1-1.14.54h-.08a44.7,44.7,0,0,0-2.38,5.4c-.41,1.13-.76,2.22-1.05,3.29a24,24,0,0,0,12.42,7.53,86.32,86.32,0,0,1-4.92-13.6A2.63,2.63,0,0,1,347.22,83Z"/><path class="cls-38" d="M43.3,55.58c.81,0,1.24.38,1.24,1.19v5.28a1.11,1.11,0,0,1-1.24,1.23H26.39V92.1a1,1,0,0,1-1.19,1.18H19.33a1,1,0,0,1-1.18-1.18V63.28H1.24A1.11,1.11,0,0,1,0,62.05V56.77c0-.81.43-1.19,1.24-1.19Z"/><path class="cls-39" d="M86.59,55.58c.81,0,1.24.38,1.24,1.19v5.11c0,.81-.43,1.19-1.24,1.19H63.05c-5.6,0-7.16,1.67-7.16,7.32v.54H86.32c.81,0,1.18.38,1.18,1.19v4.25c0,.81-.37,1.19-1.18,1.19H55.89v.91c0,5.66,1.56,7.33,7.16,7.33H86.59c.81,0,1.24.37,1.24,1.18V92.1c0,.8-.43,1.18-1.24,1.18H62.89C52,93.28,47.81,89.4,47.81,79.06V69.8c0-10.34,4.2-14.22,15.08-14.22Z"/><path class="cls-40" d="M133,55.58c.81,0,1.18.38,1.18,1.19v5.28c0,.8-.37,1.23-1.18,1.23H109c-5.54,0-7.16,1.62-7.16,7.33v7.65c0,5.7,1.62,7.37,7.16,7.37h24c.81,0,1.18.38,1.18,1.19V92.1A1,1,0,0,1,133,93.28H108.66c-10.88,0-15.08-3.88-15.08-14.22V69.8c0-10.34,4.2-14.22,15.08-14.22Z"/><path class="cls-41" d="M146.94,55.58a1,1,0,0,1,1.19,1.19v14h25.2v-14a1,1,0,0,1,1.19-1.19h5.81c.81,0,1.24.38,1.24,1.19V92.1c0,.8-.43,1.18-1.24,1.18h-5.81a1,1,0,0,1-1.19-1.18V77.77h-25.2V92.1a1,1,0,0,1-1.19,1.18h-5.81c-.81,0-1.24-.38-1.24-1.18V56.77c0-.81.43-1.19,1.24-1.19Z"/><path class="cls-42" d="M212.27,93.13h23.55c.8,0,1.23-.37,1.23-1.17V86.87c0-.8-.43-1.18-1.23-1.18H212.43c-5.57,0-7.12-1.66-7.12-7.27V77.5h30.24a1,1,0,0,0,1.18-1.17V72.1a1,1,0,0,0-1.18-1.18H205.31v-.54c0-5.61,1.55-7.27,7.12-7.27h23.39c.8,0,1.23-.38,1.23-1.18V56.84c0-.8-.43-1.17-1.23-1.17H212.27c-10.82,0-15,3.85-15,14.13V79C197.28,89.28,201.45,93.13,212.27,93.13Z"/><path class="cls-43" d="M269,73.7l16.43-16.64c.48-.48.43-1.39-.54-1.39h-7a2,2,0,0,0-1.72.75L263.88,68.83,252.21,56.42a2,2,0,0,0-1.71-.75h-7.33c-1,0-1,.91-.54,1.39l15.9,16.38-37.39,39.47H1.32a.74.74,0,0,0-.74.74v6.8a.74.74,0,0,0,.74.74H222.17a2,2,0,0,0,1.66-.74L263.4,78.52l13.22,13.86a1.86,1.86,0,0,0,1.71.75h7.33c1,0,1-.91.54-1.39Z"/><path class="cls-44" d="M321.27,55.67H292.53a1.42,1.42,0,0,0-1.61,1.6V92c0,.8.43,1.17,1.23,1.17h5.78c.81,0,1.18-.37,1.18-1.17V81.68h22.16c8.19,0,11.51-3.8,11.51-11v-4C332.78,59.47,329.46,55.67,321.27,55.67Zm3.32,14.18c0,3.21-1.34,4.76-5,4.76h-20.5V63.69c0-.48.22-.64.7-.64h19.8c3.64,0,5,1.55,5,4.77Z"/></svg>