<svg id="Layer_1" data-name="Layer 1" xmlns="http://www.w3.org/2000/svg" viewBox="0 0 996.64 219.11"><defs><style>.cls-1{fill:#ee2625;}.cls-2{fill:#0b0f13;}</style></defs><rect class="cls-1" x="138.73" y="141.6" width="69.36" height="69.36"/><polygon class="cls-1" points="208.09 72.24 208.09 2.88 138.73 2.88 99.66 2.88 69.36 2.88 0 2.88 0 72.24 0 75.34 0 141.6 0 210.97 69.36 210.97 69.36 141.6 138.73 141.6 138.73 72.24 208.09 72.24"/><path class="cls-2" d="M390.8,327c0,24.67-9.17,36.33-30,39.2,19.89,2.1,30,10.9,30,30v36.71H348.74V398.51c0-16.45-2.11-18.17-22.95-18.17H296v52.58H255.81V283.78h85.28C380.86,283.78,390.8,292.38,390.8,327Zm-60,22.76c18,0,19.89-1.72,19.89-17,0-14.73-1.91-16.45-19.89-16.45H296v33.47Z" transform="translate(-0.7 -279.95)"/><path class="cls-2" d="M458.5,315.9c48,0,60,11.86,60,59.66s-12,59.66-60,59.66-60-11.86-60-59.66S410.5,315.9,458.5,315.9Zm-21.8,59.66c0,27.92,2.1,31,21.8,31s21.79-3.06,21.79-31-2.1-31-21.79-31S436.7,347.64,436.7,375.56Z" transform="translate(-0.7 -279.95)"/><path class="cls-2" d="M570.17,280v53.73c4.2-12.43,16.44-17.78,38.24-17.78,34.23,0,42.83,11.86,42.83,59.66s-9,59.66-44.74,59.66c-22.37,0-34-8-37.29-26.2v23.9H533.84V280Zm21,124.67c19.69,0,21.8-2.86,21.8-29.06s-1.91-29.06-19.7-29.06c-16.25,0-23.13,6.5-23.13,21.79v24.1C570.17,401,578,404.62,591.2,404.62Z" transform="translate(-0.7 -279.95)"/><path class="cls-2" d="M735.18,432.92V415c-3.44,14-13.76,20.27-32.69,20.27-30.22,0-37.67-8.61-37.67-42.83l-.2-74.2H701v65.59c0,18.74,1.72,20.84,17,20.84,11.85,0,17-5.92,17-20.07l.19-66.36h36.33V432.92Z" transform="translate(-0.7 -279.95)"/><path class="cls-2" d="M844.75,408.45c18.55,0,20.65-1,20.65-8.8,0-5.73-5.35-8.22-27.15-12.23-39-7.65-48.76-14.92-48.76-36.91,0-27.73,11.28-34.61,56.22-34.61,44,0,55.07,7.84,55.07,38.82v3.44H864.44v-3.44c0-10.9-1.91-12.05-18.73-12.05-16.26,0-18,1-18,9,0,5.35,3.25,7.07,15.87,9,48,7.84,60,16.25,60,41.68,0,26.39-11.66,32.89-57.93,32.89-47,0-58.9-7.65-58.9-38.24v-2.49h36.33V397C823.14,407.3,825.25,408.45,844.75,408.45Z" transform="translate(-0.7 -279.95)"/><path class="cls-2" d="M997.34,432.92H974.4c-36.72,0-45.9-7.64-45.9-38.62V348.79H917v-30.6h13.39V293.72h34.41v24.47h30.6v30.6h-30.6v36.14c0,14,1.34,15.49,13.2,15.49h19.31Z" transform="translate(-0.7 -279.95)"/><path class="cls-2" d="M285.12,468c0,5.36-2,7.89-6.52,8.51,4.32.46,6.52,2.37,6.52,6.52v8H276v-7.47c0-3.57-.46-3.94-5-3.94h-6.47V491h-8.72V458.64h18.52C283,458.64,285.12,460.51,285.12,468Zm-13,4.94c3.91,0,4.32-.37,4.32-3.69s-.41-3.57-4.32-3.57h-7.55V473Z" transform="translate(-0.7 -279.95)"/><path class="cls-2" d="M299.45,491.52c-10.14,0-12.67-2.57-12.67-12.95s2.53-13,12.67-13c9.84,0,12.45,2.29,12.66,11.34v3.86h-17c.16,4.36.95,4.9,4.36,4.9s4.11-.54,4.11-2.62h8.3C311.74,489.82,309.24,491.52,299.45,491.52ZM303.81,475c-.09-3.2-.67-3.57-4.32-3.57-3.07,0-4,.41-4.32,3.57Z" transform="translate(-0.7 -279.95)"/><path class="cls-2" d="M327.18,485.71c4,0,4.49-.21,4.49-1.91,0-1.25-1.17-1.78-5.9-2.66-8.47-1.66-10.59-3.24-10.59-8,0-6,2.45-7.52,12.21-7.52,9.55,0,12,1.71,12,8.43v.75h-7.89V474c0-2.36-.42-2.61-4.07-2.61s-3.9.21-3.9,1.95c0,1.16.7,1.54,3.44,1.95,10.42,1.7,13,3.53,13,9.05,0,5.73-2.53,7.14-12.58,7.14-10.21,0-12.79-1.66-12.79-8.3v-.54h7.89v.54C322.49,485.46,323,485.71,327.18,485.71Z" transform="translate(-0.7 -279.95)"/><path class="cls-2" d="M355.13,491.52c-10.14,0-12.67-2.57-12.67-12.95s2.53-13,12.67-13c9.84,0,12.45,2.29,12.66,11.34v3.86h-17c.16,4.36.95,4.9,4.36,4.9s4.11-.54,4.11-2.62h8.3C367.42,489.82,364.92,491.52,355.13,491.52ZM359.49,475c-.09-3.2-.67-3.57-4.32-3.57-3.08,0-4,.41-4.32,3.57Z" transform="translate(-0.7 -279.95)"/><path class="cls-2" d="M394.74,474.25V491h-7.89v-3.4c-.83,2.66-3,3.86-6.94,3.9-7.72.25-9.63-1.28-9.63-7.68,0-6.06,1.91-7.6,9.51-7.6l7.06,0v-1.41c0-3-.38-3.36-3.74-3.36-3.78,0-4.19.33-4.11,3.24h-7.89v-.88c0-6.56,2.41-8.18,12.08-8.18C392.41,465.61,394.74,467.36,394.74,474.25Zm-11.63,11.63c2.62-.05,3.74-.88,3.74-2.79V482l-3.74,0c-4.07,0-4.52.16-4.52,1.86S379,486,383.11,485.88Z" transform="translate(-0.7 -279.95)"/><path class="cls-2" d="M406.36,466.11v4.61c.71-3.2,2.95-4.61,7.1-4.61h2.87v7.06l-5.61-.08c-3.07,0-4.36,1.16-4.36,3.94v14h-7.89V466.11Z" transform="translate(-0.7 -279.95)"/><path class="cls-2" d="M418.4,478.57c0-10.38,2.62-13,13-13,9.8,0,12.33,2.2,12.58,11h-8.3c-.17-4.28-.58-4.74-4.28-4.74-4.27,0-4.73.67-4.73,6.73s.46,6.73,4.73,6.73c3.66,0,4.07-.5,4.28-4.82H444c-.21,8.84-2.74,11-12.58,11C421,491.52,418.4,489,418.4,478.57Z" transform="translate(-0.7 -279.95)"/><path class="cls-2" d="M455.23,457.81v12.25c.79-3.08,3.2-4.45,7.52-4.45,6.48,0,8.18,1.87,8.18,9.31l0,16.1h-7.89V476.78c0-4.07-.33-4.52-3.45-4.52s-4.4,1.49-4.4,4.94V491h-7.89V457.81Z" transform="translate(-0.7 -279.95)"/><path class="cls-2" d="M520.83,490.77h-10l-1.74-6.3H496.71l-1.95,6.3H485.4l10.65-32.32h14.42ZM507,477.43l-3.86-11.94h-.24L499,477.43Z" transform="translate(-0.7 -279.95)"/><path class="cls-2" d="M531,465.91v3.89c.79-3,3.15-4.39,7.5-4.39,6.55,0,8.17,1.86,8.17,9.28l0,16.08h-7.87V476.68c0-4.18-.34-4.64-3.48-4.64s-4.32,1.41-4.32,4.64l0,14.09h-7.87V465.91Z" transform="translate(-0.7 -279.95)"/><path class="cls-2" d="M575,490.77h-7.67v-5.18c-.7,3.94-3.23,5.68-8.08,5.68-7.75,0-9.7-2.57-9.7-12.93s1.87-12.93,9.28-12.93c4.73,0,7.38,1.16,8.29,3.85V457.62H575Zm-12.44-6.13c2.86,0,4.56-.79,4.56-2.65v-5.22c0-3.32-1.49-4.73-5-4.73-3.86,0-4.27.62-4.27,6.3S558.34,484.64,562.6,484.64Z" transform="translate(-0.7 -279.95)"/><path class="cls-2" d="M591.61,458.45h16.71c11.81,0,14.75,3.23,14.75,16.16s-2.94,16.16-14.75,16.16H591.61Zm8.67,16.16,0,8.7h7.08c5.89,0,6.55-.87,6.55-8.7s-.66-8.7-6.55-8.7h-7.08Z" transform="translate(-0.7 -279.95)"/><path class="cls-2" d="M638.2,491.27c-10.12,0-12.64-2.57-12.64-12.93s2.52-12.93,12.64-12.93c9.82,0,12.43,2.28,12.64,11.31v3.86h-17c.16,4.35,1,4.89,4.35,4.89s4.1-.54,4.1-2.61h8.29C650.46,489.57,648,491.27,638.2,491.27Zm4.35-16.49c-.09-3.2-.67-3.57-4.31-3.57-3.07,0-4,.42-4.31,3.57Z" transform="translate(-0.7 -279.95)"/><path class="cls-2" d="M671.31,490.77H659.17l-6.88-24.86h8.16L665.38,485h.25l5.43-19.06h7.83Z" transform="translate(-0.7 -279.95)"/><path class="cls-2" d="M692.16,491.27c-10.12,0-12.64-2.57-12.64-12.93s2.52-12.93,12.64-12.93c9.82,0,12.43,2.28,12.64,11.31v3.86H687.85c.16,4.35.95,4.89,4.35,4.89s4.1-.54,4.1-2.61h8.29C704.42,489.57,701.94,491.27,692.16,491.27Zm4.35-16.49c-.09-3.2-.67-3.57-4.31-3.57-3.07,0-4,.42-4.31,3.57Z" transform="translate(-0.7 -279.95)"/><path class="cls-2" d="M719.26,490.77h-4.52c-5.34,0-6.67-1.36-6.63-6.79V457.62H716v24c0,1.91.33,2.12,3.27,2.12Z" transform="translate(-0.7 -279.95)"/><path class="cls-2" d="M734.76,465.41c10.4,0,13,2.57,13,12.93s-2.61,12.93-13,12.93-13-2.57-13-12.93S724.36,465.41,734.76,465.41ZM730,478.34c0,6.05.46,6.71,4.73,6.71s4.72-.66,4.72-6.71-.45-6.71-4.72-6.71S730,472.29,730,478.34Z" transform="translate(-0.7 -279.95)"/><path class="cls-2" d="M751.09,465.91h7.66v4.68c.71-3.61,3.24-5.18,8.09-5.18,7.75,0,9.69,2.57,9.69,12.93s-1.86,12.93-9.28,12.93c-4.89,0-7.5-1.49-8.29-4.93v12.72h-7.87Zm12.43,18.73c4.27,0,4.72-.62,4.72-6.3s-.41-6.3-4.31-6.3c-3.44,0-5,1.41-5,4.77V482C759,483.73,760.58,484.64,763.52,484.64Z" transform="translate(-0.7 -279.95)"/><path class="cls-2" d="M787.72,465.91v2.86c.83-2.32,2.74-3.36,5.85-3.36,5.67,0,7.91,1.12,8.58,5.1.74-3.53,2.85-5.1,6.75-5.1,7.58,0,9.49,2.2,9.49,10.94v14.42h-7.87V477.39c0-4.81-.38-5.35-3.65-5.35-2.74,0-3.9,1.53-3.86,5.06v13.67h-7.79V477.39c0-4.81-.37-5.35-3.68-5.35-2.66,0-3.82,1.53-3.82,5.06v13.67h-7.87V465.91Z" transform="translate(-0.7 -279.95)"/><path class="cls-2" d="M833.93,491.27c-10.11,0-12.64-2.57-12.64-12.93s2.53-12.93,12.64-12.93c9.82,0,12.43,2.28,12.64,11.31v3.86h-17c.17,4.35,1,4.89,4.35,4.89s4.11-.54,4.11-2.61h8.28C846.2,489.57,843.71,491.27,833.93,491.27Zm4.35-16.49c-.08-3.2-.66-3.57-4.31-3.57-3.06,0-4,.42-4.31,3.57Z" transform="translate(-0.7 -279.95)"/><path class="cls-2" d="M857.76,465.91v3.89c.79-3,3.15-4.39,7.5-4.39,6.55,0,8.17,1.86,8.17,9.28l0,16.08h-7.88V476.68c0-4.18-.33-4.64-3.48-4.64s-4.31,1.41-4.31,4.64l0,14.09h-7.87V465.91Z" transform="translate(-0.7 -279.95)"/><path class="cls-2" d="M894.19,490.77h-5c-8,0-10-1.66-10-8.37v-9.86h-2.49v-6.63h2.91V460.6h7.45v5.31h6.64v6.63h-6.64v7.83c0,3,.29,3.36,2.86,3.36h4.19Z" transform="translate(-0.7 -279.95)"/><path class="cls-2" d="M919.47,458.45v24.86h15.75v7.46H910.77V458.45Z" transform="translate(-0.7 -279.95)"/><path class="cls-2" d="M954.49,490.77h-5c-8,0-9.95-1.66-9.95-8.37v-9.86h-2.49v-6.63H940V460.6h7.46v5.31h6.63v6.63h-6.63v7.83c0,3,.29,3.36,2.86,3.36h4.19Z" transform="translate(-0.7 -279.95)"/><path class="cls-2" d="M983.25,490.77h-7.67v-5.18c-.7,3.94-3.23,5.68-8.08,5.68-7.75,0-9.7-2.57-9.7-12.93s1.87-12.93,9.29-12.93c4.72,0,7.37,1.16,8.29,3.85V457.62h7.87Zm-12.43-6.13c2.86,0,4.56-.79,4.56-2.65v-5.22c0-3.32-1.5-4.73-5-4.73-3.85,0-4.27.62-4.27,6.3S966.55,484.64,970.82,484.64Z" transform="translate(-0.7 -279.95)"/><path class="cls-2" d="M997.34,482.9v7.87h-9.53V482.9Z" transform="translate(-0.7 -279.95)"/></svg>